<?xml version="1.0" standalone="no"?>
<!DOCTYPE svg PUBLIC "-//W3C//DTD SVG 20010904//EN"
 "http://www.w3.org/TR/2001/REC-SVG-20010904/DTD/svg10.dtd">
<svg version="1.0" xmlns="http://www.w3.org/2000/svg"
 width="300.000000pt" height="203.000000pt" viewBox="0 0 300.000000 203.000000"
 preserveAspectRatio="xMidYMid meet">
<metadata>
Created by potrace 1.10, written by Peter Selinger 2001-2011
</metadata>
<g transform="translate(0.000000,203.000000) scale(0.100000,-0.100000)"
fill="#000000" stroke="none">
<path d="M2945 1204 c-200 -175 -465 -305 -713 -349 -157 -28 -142 -28 -142 5
0 17 -1 30 -3 30 -1 0 -40 -16 -85 -35 l-82 -34 -104 9 c-188 16 -283 37 -576
124 -69 21 -177 48 -241 61 -125 26 -374 48 -475 43 -35 -1 -67 2 -75 8 -38
31 -93 28 -102 -5 -3 -14 -16 -20 -52 -23 -51 -4 -59 0 -44 22 14 24 10 108
-7 141 -14 29 -17 30 -37 16 -36 -24 -62 -78 -67 -142 l-5 -60 -45 -7 c-70
-12 -90 -18 -90 -27 0 -5 34 -1 75 9 41 10 75 14 75 11 0 -18 -89 -90 -117
-96 -18 -4 -33 -11 -33 -16 0 -5 11 -4 26 1 23 9 25 8 19 -7 -4 -10 -12 -30
-17 -45 -5 -16 -15 -28 -21 -28 -9 0 -9 -2 -1 -8 6 -4 14 -21 17 -39 5 -25 3
-33 -11 -36 -15 -4 -14 -5 2 -6 10 0 34 -17 53 -36 l34 -35 -51 0 c-27 0 -50
-3 -50 -7 0 -5 44 -6 99 -5 l98 4 8 -47 c4 -29 2 -58 -5 -75 -13 -32 -57 -57
-74 -40 -7 7 -5 10 6 10 9 0 20 9 23 20 16 50 -30 85 -66 49 -31 -31 -24 -66
18 -88 34 -17 62 -13 89 14 23 23 25 32 22 92 l-3 66 115 -6 c126 -7 282 -28
381 -52 35 -9 75 -18 89 -21 83 -17 350 -113 350 -126 0 -4 -15 -4 -33 -1 -44
7 -89 -28 -85 -66 3 -22 8 -26 40 -29 45 -4 88 32 88 73 l0 25 63 -31 c34 -17
91 -48 127 -69 246 -142 471 -228 700 -267 134 -23 366 -23 500 1 160 28 450
130 450 158 0 4 -17 0 -37 -11 -99 -50 -242 -98 -383 -128 -66 -14 -129 -18
-280 -18 -213 1 -276 9 -474 67 -90 26 -106 34 -91 42 50 30 75 59 75 88 0 24
3 29 16 24 9 -4 47 -11 83 -16 36 -5 93 -14 126 -20 33 -5 90 -10 128 -10 61
0 67 -2 67 -20 0 -51 98 -50 149 1 24 23 45 32 93 40 54 9 153 33 219 54 17 6
19 1 19 -44 0 -69 18 -65 22 4 l3 55 97 44 c95 43 172 85 166 92 -2 1 -53 -21
-113 -51 -169 -82 -155 -85 -155 39 l0 106 38 15 c51 22 125 66 119 71 -3 3
-39 -13 -81 -36 l-76 -41 0 110 0 111 43 21 c49 25 214 137 223 151 14 22 -5
14 -58 -27 -31 -23 -91 -63 -132 -89 -69 -41 -76 -44 -76 -25 0 36 -33 79 -75
99 -23 11 -48 20 -56 20 -8 0 23 20 69 45 134 72 348 232 332 248 -3 3 -27
-15 -55 -39z m-2705 -57 c0 -33 -8 -54 -29 -85 -52 -71 -70 -69 -52 5 13 51
55 123 71 123 6 0 10 -20 10 -43z m184 -98 c19 -9 22 -14 13 -24 -14 -15 -57
1 -57 22 0 16 11 17 44 2z m384 -19 c154 -17 357 -62 507 -114 119 -40 283
-76 435 -94 l145 -18 -47 -13 -48 -14 0 -58 c0 -36 -4 -59 -11 -59 -35 0 -230
46 -327 77 -106 34 -113 38 -109 60 5 26 -1 28 -35 12 -19 -8 -44 -3 -129 25
-59 20 -113 36 -122 36 -18 0 -67 55 -67 76 0 8 -4 14 -9 14 -6 0 -7 -16 -4
-35 6 -40 8 -39 -72 -20 -33 8 -73 15 -89 15 -18 0 -40 10 -55 24 -38 36 -75
42 -100 17 -21 -21 -51 -28 -51 -12 0 5 7 11 15 15 8 3 15 10 15 15 0 6 -7 8
-15 5 -10 -4 -15 0 -15 16 0 11 -4 19 -9 16 -5 -3 -7 -15 -4 -26 4 -15 0 -20
-15 -20 -13 0 -22 8 -25 23 -4 19 -4 19 -6 -5 -1 -23 -7 -28 -36 -34 -20 -3
-37 -5 -39 -3 -2 2 -7 23 -11 47 l-7 42 122 0 c66 0 164 -5 218 -10z m-441
-20 c14 -11 41 -20 59 -20 27 0 34 -4 34 -19 0 -17 -10 -20 -87 -25 -49 -4
-114 -9 -145 -12 -68 -7 -72 1 -27 51 42 46 124 58 166 25z m243 -60 c0 -5
-10 -10 -22 -10 -19 0 -20 2 -8 10 19 13 30 13 30 0z m-37 -32 c-24 -5 -43
-14 -43 -19 0 -6 9 -7 20 -4 16 5 20 2 21 -17 l1 -23 7 24 c9 33 27 37 36 9
l8 -23 4 25 c7 35 24 42 46 19 24 -26 64 -41 88 -34 16 5 19 1 19 -29 0 -33
-2 -35 -27 -31 -71 12 -189 25 -229 25 l-44 0 0 44 c0 44 0 45 38 48 20 2 51
1 67 -1 29 -4 28 -5 -12 -13z m173 8 c18 -14 18 -15 1 -22 -13 -4 -26 0 -40
15 -21 21 -21 21 -1 21 11 0 29 -6 40 -14z m-286 -40 l0 -43 -92 -1 c-76 -1
-95 2 -116 19 -14 10 -35 19 -48 19 -13 0 -24 5 -24 10 0 6 0 13 0 18 0 9 88
18 198 20 l82 2 0 -44z m2191 15 c45 -45 36 -111 -14 -111 -27 0 -87 63 -87
92 0 54 55 64 101 19z m-146 -1 c-14 -44 58 -120 115 -120 42 0 9 -19 -99 -55
-56 -19 -105 -35 -109 -35 -4 0 -6 16 -4 35 3 21 0 35 -7 35 -6 0 -11 -17 -11
-40 0 -22 -2 -40 -5 -40 -3 0 -47 -6 -98 -14 -50 -8 -116 -17 -144 -20 l-53
-7 0 90 0 89 58 6 c73 9 242 50 307 75 28 11 51 20 53 21 2 0 1 -9 -3 -20z
m-2342 -10 c3 -13 0 -20 -8 -20 -8 0 -22 -11 -33 -25 -20 -25 -52 -34 -52 -15
0 15 61 80 75 80 7 0 15 -9 18 -20z m774 -4 l48 -12 1 -52 c1 -29 -2 -52 -7
-52 -4 0 -48 9 -98 21 l-91 21 0 50 0 50 49 -7 c27 -4 71 -12 98 -19z m131
-77 c20 -39 22 -40 18 -14 -2 17 -7 37 -11 46 -5 14 8 12 82 -12 48 -16 94
-29 102 -29 25 0 -1 -16 -56 -36 -30 -10 -53 -24 -53 -32 0 -19 -51 -7 -65 15
-5 9 -27 35 -47 58 -21 23 -38 50 -38 60 0 29 41 -4 68 -56z m1009 25 c-3 -3
-12 -4 -19 -1 -8 3 -5 6 6 6 11 1 17 -2 13 -5z m-1848 -19 c52 -26 56 -71 7
-71 -36 0 -46 13 -46 64 0 26 2 27 39 7z m231 -30 l0 -44 -77 4 c-63 3 -77 7
-79 22 -2 9 -5 27 -9 40 -5 23 -4 23 80 23 l85 0 0 -45z m233 23 l87 -11 0
-50 c0 -49 0 -49 -27 -44 -16 3 -83 14 -150 23 l-123 18 0 44 0 44 63 -6 c34
-4 101 -12 150 -18z m-513 -29 c0 -38 -1 -40 -27 -37 -23 2 -28 7 -25 27 3 29
19 51 38 51 10 0 14 -13 14 -41z m1885 32 c-11 -10 -233 -101 -246 -101 -5 0
-9 6 -9 13 0 15 195 96 235 97 17 0 25 -4 20 -9z m-1965 -35 c0 -22 -6 -36
-16 -40 -24 -9 -24 -9 -24 34 0 33 3 40 20 40 16 0 20 -7 20 -34z m883 -79 c2
-47 -1 -56 -13 -51 -8 3 -52 15 -97 27 l-83 22 0 51 0 50 96 -21 96 -21 1 -57z
m71 64 c22 -24 20 -25 -23 -10 -20 7 -31 18 -31 30 0 16 4 18 18 10 9 -5 26
-19 36 -30z m1656 -80 l0 -108 -72 -26 c-64 -23 -213 -67 -228 -67 -3 0 -4 43
-3 96 l2 97 98 32 c54 17 121 43 148 58 28 14 51 26 53 27 1 0 2 -49 2 -109z
m-1386 93 c12 -5 16 -21 16 -70 0 -35 -1 -64 -2 -64 -7 1 -170 68 -174 73 -3
2 28 18 68 35 40 17 74 31 75 31 1 1 8 -2 17 -5z m742 -131 c-7 -8 -256 8
-256 16 0 3 58 29 128 56 l127 50 3 -59 c2 -32 1 -61 -2 -63z m-621 85 c33
-11 66 -22 74 -24 10 -3 11 -8 2 -18 -25 -30 24 -65 70 -51 23 8 23 10 3 -48
-16 -47 -37 -55 -49 -17 -5 14 -15 18 -48 17 -24 0 -64 9 -92 21 l-50 22 0 65
c0 54 3 64 15 59 8 -3 42 -15 75 -26z m-378 -45 c-6 -54 11 -57 19 -3 7 42 8
43 38 31 15 -6 19 -19 20 -65 1 -46 -2 -56 -14 -52 -8 2 -40 13 -70 24 l-55
20 -3 55 -3 55 37 -11 c35 -11 36 -12 31 -54z m-914 17 c5 0 4 7 -3 15 -11 13
-8 15 14 15 19 0 26 -5 26 -19 0 -11 3 -26 6 -35 5 -13 -2 -16 -35 -16 -32 0
-48 6 -69 27 -25 25 -25 27 -7 33 12 4 28 2 40 -6 11 -8 23 -14 28 -14z m117
20 c0 -12 -49 -64 -54 -59 -2 2 -6 19 -9 37 -6 31 -6 32 28 32 19 0 35 -5 35
-10z m190 -21 c0 -17 4 -28 10 -24 6 3 10 17 10 29 0 18 5 23 23 20 12 -1 79
-11 150 -21 l127 -17 0 -48 c0 -55 2 -54 -90 -32 -88 21 -278 43 -373 44 l-79
0 31 31 c17 17 31 35 31 40 0 5 36 9 80 9 l80 0 0 -31z m880 -136 c0 -35 -2
-63 -5 -63 -3 0 -29 13 -59 29 -29 15 -68 33 -85 39 -30 11 -31 13 -31 71 l0
59 90 -36 90 -37 0 -62z m271 117 c18 0 9 -17 -15 -28 -22 -10 -24 -8 -22 14
1 16 6 22 14 19 8 -3 18 -5 23 -5z m-751 -16 l59 -17 -25 -20 c-18 -14 -24
-27 -21 -43 5 -28 6 -28 -44 -12 -38 11 -39 12 -39 60 0 26 2 48 5 48 3 0 32
-7 65 -16z m888 -11 l52 -6 0 -78 c0 -50 -4 -79 -11 -79 -20 0 -174 41 -182
49 -4 4 0 36 9 70 18 62 18 63 48 56 17 -3 55 -9 84 -12z m642 -77 l0 -94 -27
-6 c-30 -7 -213 -25 -250 -26 -22 0 -23 3 -23 89 l0 89 83 7 c45 3 109 12 142
19 33 8 63 14 68 15 4 0 7 -41 7 -93z m-397 54 l77 0 0 -89 c0 -86 -1 -88 -22
-85 -13 2 -71 8 -130 15 l-108 12 0 80 0 80 53 -7 c28 -3 87 -6 130 -6z
m-1043 -42 c-12 -9 -27 -15 -35 -12 -12 5 -12 9 1 29 13 21 19 22 35 12 19
-12 19 -12 -1 -29z m142 4 l46 -16 4 -58 c2 -49 1 -57 -12 -52 -55 25 -188 73
-200 74 -8 0 0 7 17 15 18 8 38 26 45 40 12 27 11 27 100 -3z m329 -4 c32 -13
59 -29 59 -36 0 -17 49 -34 78 -27 21 5 23 3 18 -12 -4 -10 -12 -37 -19 -60
-6 -24 -17 -43 -23 -43 -7 0 -50 18 -95 40 l-82 40 -1 60 c-1 33 1 60 3 60 2
0 30 -10 62 -22z m-186 -54 l57 -26 -31 -19 c-30 -18 -35 -28 -32 -57 1 -9 -8
-7 -34 5 -34 16 -35 19 -35 70 0 29 4 53 9 53 5 0 34 -12 66 -26z m1468 -185
c-12 -11 -189 -57 -249 -65 l-51 -6 3 93 4 94 82 21 c46 12 112 32 148 45 l65
24 3 -99 c1 -55 -1 -103 -5 -107z m-2573 174 c0 -7 -7 -13 -15 -13 -8 0 -15 6
-15 13 0 8 7 14 15 14 8 0 15 -6 15 -14z m1575 -29 l90 -21 3 -81 3 -80 -118
40 c-65 22 -120 42 -122 44 -2 2 4 32 14 68 11 41 22 63 29 59 6 -4 51 -17
101 -29z m-390 -24 c7 -12 -14 -44 -23 -35 -3 3 -11 0 -18 -6 -8 -7 -14 -7
-19 1 -4 6 4 19 17 30 27 22 34 24 43 10z m112 -31 c38 -17 78 -35 91 -40 12
-5 22 -13 22 -18 0 -6 6 -8 13 -6 6 3 47 -8 89 -23 l77 -28 -30 -13 c-32 -14
-64 -64 -55 -87 3 -8 3 -14 1 -14 -7 0 -199 98 -291 149 l-71 39 31 13 c17 8
35 24 41 37 5 12 11 22 12 22 1 0 33 -14 70 -31z m528 11 c50 -5 96 -10 103
-10 6 0 12 -6 12 -12 0 -9 -17 -13 -51 -13 -45 0 -54 -4 -81 -34 -23 -25 -29
-41 -26 -63 4 -27 3 -29 -20 -23 -13 3 -37 9 -53 12 l-29 6 0 79 0 80 28 -6
c15 -3 68 -10 117 -16z m435 -60 l0 -69 -30 5 c-43 9 -79 -3 -111 -37 l-28
-30 -105 7 -104 7 39 37 c34 33 39 42 39 83 l0 47 68 1 c37 1 92 4 122 9 30 4
67 8 83 9 l27 1 0 -70z m-1271 3 c-21 -27 -32 -33 -45 -23 -6 6 -14 7 -17 3
-4 -3 -7 -3 -7 0 0 9 52 36 69 37 11 0 11 -3 0 -17z m934 -6 c11 10 8 -14 -5
-42 -6 -14 -16 -25 -21 -25 -6 0 -18 -7 -27 -15 -20 -18 -54 -9 -46 12 3 8 2
11 -4 8 -5 -3 -8 4 -7 15 2 25 75 64 92 50 7 -6 15 -7 18 -3z m294 -93 c5 -13
7 -13 14 -2 6 9 9 5 9 -12 0 -45 -82 -78 -110 -45 -14 17 -14 18 32 51 40 28
47 29 55 8z m-574 -3 c4 0 7 -11 7 -23 0 -41 -91 -78 -112 -45 -8 13 4 47 15
44 5 -1 13 6 18 15 8 15 21 17 72 9z"/>
<path d="M2860 866 c0 -4 10 -20 21 -36 25 -33 21 -63 -12 -99 l-21 -23 38
-39 c38 -39 38 -39 12 -39 -37 0 -53 -22 -37 -52 16 -31 40 -58 52 -58 6 0 3
8 -6 18 -10 10 -17 26 -17 35 0 21 34 31 60 17 27 -14 25 -4 -5 32 -14 16 -25
33 -25 37 0 5 18 20 40 35 22 14 40 31 40 36 0 6 -19 -3 -42 -20 -22 -17 -43
-28 -46 -25 -2 2 5 21 17 41 l22 37 -26 37 c-28 40 -65 78 -65 66z"/>
</g>
</svg>
